<svg width="414" height="291" viewBox="0 0 414 291" fill="none" xmlns="http://www.w3.org/2000/svg">
<mask id="mask0_3_1583" style="mask-type:alpha" maskUnits="userSpaceOnUse" x="0" y="0" width="414" height="291">
<rect width="414" height="290.064" rx="20" fill="#AFDBC5"/>
</mask>
<g mask="url(#mask0_3_1583)">
<path d="M393.995 -8.76624H4.34546C-6.70024 -8.76624 -15.6545 0.188059 -15.6545 11.2338V400.883C-15.6545 411.929 -6.70025 420.883 4.34545 420.883H393.995C405.041 420.883 413.995 411.929 413.995 400.883V11.2338C413.995 0.18807 405.041 -8.76624 393.995 -8.76624Z" fill="#4C53B4"/>
<path d="M351.368 242.381C387.217 168.263 348.133 75.2197 264.072 34.5619C180.011 -6.09586 82.8053 21.0286 46.9568 95.1461C11.1084 169.264 50.1923 262.307 134.253 302.965C218.314 343.623 315.52 316.498 351.368 242.381Z" fill="#5F65BF"/>
<path d="M388.551 37.799C388.324 37.5709 388.091 37.3526 387.852 37.1443C385.277 34.8957 380.464 27.179 378.634 24.2908C376.654 21.163 372.512 19.5045 368.787 20.3509C368.3 20.4612 367.825 20.6063 367.365 20.7831C366.06 21.2853 361.571 19.5726 361.049 18.2757C359.76 15.0792 357.087 12.6903 354.067 12.0415C350.385 11.251 346.101 13.1457 343.644 16.656C343.226 17.2528 342.845 17.894 342.503 18.5699C341.848 19.8653 338.038 20.4472 336.795 19.6979C333.998 18.0137 330.213 17.9621 327.149 19.5604C324.297 21.0513 322.062 23.9342 321.173 27.2812C320.528 29.7162 316.092 32.3609 313.575 32.4601C313.233 32.4736 312.883 32.5109 312.524 32.5745C310.024 33.017 307.957 34.5552 306.857 36.7936C305.762 39.0192 305.804 41.5756 306.969 43.8098C308.937 47.5821 312.962 49.9366 319.27 51.0064C323.635 51.7454 328.129 51.7927 332.473 51.8357C333.281 51.8443 334.084 51.8529 334.892 51.8657C335.528 51.8743 336.09 51.8872 336.61 51.9044C340.172 52.0161 343.738 52.0892 347.205 52.1192C348.696 52.1321 350.179 52.1407 351.665 52.1407C357.057 52.1407 362.394 52.0462 367.588 51.8614C368.873 51.8142 370.179 51.7454 371.442 51.681C373.307 51.5822 375.232 51.4834 377.126 51.4533C380.314 51.3974 383.163 51.2556 385.758 50.0956C388.001 49.0902 391 47.3673 391.202 44.0117C391.331 41.885 390.364 39.6207 388.551 37.799Z" fill="#93A1ED"/>
<path d="M409.118 105.671C408.961 105.514 408.8 105.363 408.635 105.219C406.848 103.66 403.517 98.3175 402.248 96.3135C400.878 94.1481 398.007 92.9966 395.43 93.5809C395.092 93.6576 394.763 93.7581 394.445 93.8805C393.534 94.2312 390.432 93.0477 390.068 92.1416C389.178 89.9289 387.322 88.2748 385.23 87.8236C382.682 87.2737 379.713 88.5884 378.012 91.0202C377.722 91.4346 377.457 91.8798 377.22 92.3492C376.767 93.2462 374.13 93.6473 373.268 93.1298C371.331 91.9654 368.71 91.9268 366.587 93.0353C364.611 94.0664 363.064 96.0643 362.45 98.3844C362.002 100.068 358.926 101.904 357.186 101.974C356.95 101.984 356.708 102.01 356.46 102.054C354.729 102.359 353.298 103.424 352.533 104.975C351.777 106.518 351.803 108.288 352.611 109.835C353.973 112.447 356.761 114.079 361.131 114.818C364.155 115.33 367.266 115.364 370.278 115.394C370.836 115.399 371.395 115.407 371.954 115.416C372.396 115.424 372.783 115.433 373.144 115.441C375.61 115.519 378.08 115.57 380.482 115.592C381.513 115.6 382.544 115.605 383.571 115.605C387.305 115.605 391.004 115.54 394.6 115.411C395.49 115.381 396.396 115.334 397.268 115.287C398.557 115.218 399.894 115.149 401.204 115.128C403.412 115.089 405.385 114.99 407.18 114.187C408.732 113.491 410.811 112.296 410.953 109.972C411.043 108.498 410.373 106.93 409.118 105.671Z" fill="#93A1ED"/>
<path d="M32.4363 192.693C32.3195 192.575 32.1995 192.463 32.0766 192.356C30.7472 191.198 28.265 187.215 27.3234 185.724C26.3009 184.108 24.1655 183.253 22.245 183.691C21.9931 183.748 21.7476 183.823 21.5101 183.915C20.8401 184.173 18.5212 183.288 18.2535 182.622C17.5876 180.972 16.2084 179.739 14.6531 179.404C12.754 178.995 10.5413 179.975 9.27386 181.784C9.0581 182.092 8.86115 182.424 8.68454 182.773C8.3471 183.441 6.37917 183.742 5.73784 183.356C4.29422 182.488 2.34361 182.463 0.762502 183.288C-0.711196 184.057 -1.86266 185.543 -2.32238 187.27C-2.6576 188.524 -4.94573 189.891 -6.24213 189.944C-6.41792 189.951 -6.5978 189.97 -6.78214 190.003C-8.07109 190.231 -9.13662 191.026 -9.70805 192.181C-10.2709 193.328 -10.2537 194.648 -9.6522 195.799C-8.63823 197.745 -6.56302 198.961 -3.30628 199.511C-1.05492 199.894 1.26519 199.915 3.50796 199.941C3.92472 199.945 4.34148 199.949 4.75395 199.954C5.08478 199.958 5.37264 199.967 5.63902 199.975C7.47792 200.031 9.31682 200.07 11.1042 200.087C11.8732 200.095 12.638 200.1 13.4028 200.1C16.1826 200.1 18.9367 200.053 21.6177 199.954C22.2793 199.928 22.9539 199.894 23.607 199.859C24.5694 199.808 25.5619 199.756 26.5372 199.739C28.1827 199.709 29.6521 199.64 30.9883 199.039C32.1441 198.519 33.6951 197.629 33.7982 195.902C33.867 194.802 33.3686 193.634 32.4363 192.693Z" fill="#93A1ED"/>
<path d="M409.703 213.354C409.591 213.242 409.476 213.134 409.359 213.032C408.084 211.92 405.693 208.088 404.788 206.66C403.808 205.109 401.754 204.288 399.911 204.705C399.669 204.76 399.433 204.832 399.205 204.92C398.556 205.169 396.336 204.322 396.074 203.678C395.439 202.093 394.111 200.911 392.616 200.589C390.794 200.198 388.667 201.134 387.451 202.875C387.244 203.171 387.055 203.489 386.885 203.825C386.56 204.468 384.676 204.753 384.057 204.383C382.674 203.549 380.796 203.523 379.279 204.314C377.866 205.053 376.757 206.484 376.319 208.138C375.998 209.347 373.802 210.657 372.551 210.707C372.383 210.714 372.212 210.732 372.036 210.763C370.798 210.982 369.771 211.743 369.226 212.855C368.684 213.96 368.702 215.223 369.282 216.331C370.257 218.2 372.25 219.369 375.378 219.897C377.539 220.263 379.769 220.288 381.922 220.31C382.321 220.314 382.721 220.318 383.121 220.323C383.438 220.327 383.713 220.336 383.971 220.34C385.737 220.396 387.503 220.43 389.222 220.447C389.961 220.456 390.695 220.456 391.43 220.456C394.102 220.456 396.745 220.409 399.318 220.318C399.954 220.297 400.603 220.263 401.23 220.228C402.154 220.181 403.108 220.129 404.044 220.116C405.626 220.091 407.035 220.018 408.319 219.442C409.428 218.944 410.919 218.089 411.018 216.426C411.082 215.377 410.601 214.26 409.703 213.354Z" fill="#93A1ED"/>
<path d="M38.9373 102.986C38.8178 102.866 38.695 102.751 38.5693 102.641C37.2124 101.46 34.6837 97.3995 33.7214 95.8792C32.6816 94.2336 30.499 93.3615 28.5398 93.804C28.2831 93.8623 28.0329 93.939 27.7908 94.0324C27.0974 94.2999 24.745 93.4019 24.4668 92.7127C23.7879 91.0328 22.383 89.7739 20.7933 89.4302C18.8555 89.0134 16.5999 90.0102 15.3066 91.8577C15.0874 92.1712 14.8874 92.5078 14.708 92.8625C14.3641 93.5426 12.3549 93.8489 11.7019 93.456C10.2325 92.5709 8.2389 92.5408 6.62771 93.3829C5.12824 94.1649 3.951 95.6859 3.48268 97.4474C3.14314 98.7289 0.807778 100.123 -0.516856 100.176C-0.696025 100.183 -0.879383 100.203 -1.06731 100.236C-2.38203 100.468 -3.46905 101.28 -4.04907 102.457C-4.6248 103.626 -4.60332 104.975 -3.98892 106.148C-2.95347 108.133 -0.835295 109.37 2.48589 109.937C4.78452 110.328 7.14759 110.35 9.43332 110.376C9.85868 110.38 10.2797 110.384 10.7051 110.388C11.0402 110.393 11.3367 110.401 11.6116 110.41C13.4849 110.47 15.3625 110.504 17.1885 110.526C17.9705 110.535 18.7524 110.539 19.5344 110.539C22.3701 110.539 25.18 110.487 27.9125 110.393C28.5871 110.367 29.2745 110.333 29.9405 110.298C30.9201 110.247 31.9341 110.195 32.9308 110.178C34.6065 110.148 36.1103 110.075 37.4722 109.465C38.6495 108.936 40.2306 108.03 40.338 106.264C40.4025 105.134 39.8912 103.944 38.9373 102.986Z" fill="#93A1ED"/>
<path d="M86.4692 296.186C86.2212 295.937 85.9664 295.698 85.7055 295.47C82.8793 293.003 77.5988 284.535 75.5948 281.363C73.425 277.93 68.8793 276.113 64.7934 277.037C64.2571 277.158 63.7345 277.318 63.2289 277.513C61.7957 278.065 56.8761 276.189 56.3035 274.764C54.89 271.258 51.9554 268.637 48.6428 267.924C44.6041 267.056 39.9038 269.135 37.2056 272.985C36.7466 273.64 36.3284 274.344 35.9536 275.085C35.2335 276.51 31.0552 277.146 29.6867 276.324C26.619 274.476 22.4643 274.42 19.1045 276.173C15.9766 277.806 13.5233 280.972 12.548 284.646C11.8369 287.319 6.97425 290.219 4.21058 290.329C3.83653 290.344 3.45371 290.385 3.06135 290.455C0.315887 290.94 -1.94837 292.629 -3.15568 295.082C-4.3587 297.522 -4.31144 300.328 -3.03538 302.781C-0.878538 306.919 3.53826 309.501 10.4642 310.678C15.2548 311.49 20.1829 311.542 24.952 311.589C25.8371 311.598 26.7221 311.606 27.6029 311.619C28.3032 311.628 28.9176 311.645 29.4891 311.662C33.3946 311.782 37.3087 311.864 41.1154 311.898C42.7481 311.916 44.3807 311.92 46.0048 311.92C51.9211 311.92 57.7772 311.817 63.4743 311.611C64.8836 311.559 66.3186 311.486 67.7021 311.413C69.7472 311.306 71.8611 311.198 73.9363 311.159C77.4337 311.099 80.5615 310.945 83.4058 309.669C85.8634 308.564 89.1588 306.674 89.3779 302.996C89.5197 300.667 88.4585 298.188 86.4692 296.186Z" fill="#93A1ED"/>
<path d="M73.5322 23.3888C73.3109 23.1665 73.0835 22.9537 72.8507 22.7506C70.331 20.5517 65.631 13.008 63.8436 10.1814C61.9102 7.12231 57.8586 5.50253 54.2195 6.32746C53.7424 6.43575 53.2775 6.57784 52.8277 6.75092C51.5514 7.24198 47.1638 5.56815 46.6534 4.29951C45.3945 1.17596 42.7779 -1.16133 39.8262 -1.79292C36.2301 -2.56629 32.0367 -0.714497 29.635 2.7184C29.2261 3.30155 28.8534 3.92817 28.5195 4.58867C27.877 5.85931 24.1574 6.42454 22.9367 5.69158C20.2041 4.04602 16.5006 3.99446 13.5059 5.55838C10.7175 7.01489 8.53487 9.83769 7.66268 13.1073C7.03269 15.4853 2.69386 18.0737 0.235878 18.1724C-0.0975618 18.1858 -0.438797 18.2224 -0.788522 18.2846C-3.23323 18.7185 -5.25258 20.2223 -6.3267 22.4092C-7.39653 24.5833 -7.35786 27.0838 -6.21929 29.2664C-4.29446 32.9528 -0.363168 35.2557 5.8066 36.3041C10.073 37.0302 14.4683 37.0732 18.7133 37.1161C19.4995 37.1247 20.2901 37.1333 21.0763 37.1419C21.6993 37.1505 22.2493 37.1634 22.7563 37.1806C26.2364 37.288 29.7209 37.361 33.1151 37.3911C34.5716 37.404 36.0238 37.4126 37.4718 37.4126C42.7393 37.4126 47.9595 37.3224 53.0379 37.1376C54.2925 37.0903 55.5729 37.0259 56.806 36.9615C58.6277 36.8669 60.5096 36.7681 62.3613 36.738C65.4763 36.6822 68.2647 36.5447 70.7997 35.4104C72.9909 34.4265 75.9254 32.7423 76.123 29.4641C76.2519 27.3803 75.3067 25.1676 73.5322 23.3888Z" fill="#93A1ED"/>
<path d="M311.541 173.638C310.846 172.94 310.133 172.272 309.402 171.635C301.503 164.742 286.743 141.071 281.139 132.211C275.068 122.617 262.372 117.53 250.948 120.125C249.451 120.464 247.993 120.91 246.581 121.454C242.572 122.998 228.82 117.751 227.214 113.766C223.265 103.966 215.063 96.6403 205.8 94.651C194.513 92.2235 181.37 98.041 173.838 108.795C172.556 110.625 171.387 112.591 170.339 114.664C168.331 118.635 156.646 120.417 152.833 118.123C144.257 112.963 132.648 112.799 123.256 117.706C114.508 122.273 107.659 131.124 104.931 141.38C102.949 148.84 89.346 156.956 81.6327 157.262C80.5863 157.303 79.5153 157.417 78.4175 157.612C70.7483 158.97 64.4153 163.687 61.0382 170.549C57.6827 177.371 57.8073 185.212 61.3819 192.061C67.4142 203.627 79.7538 210.845 99.1052 214.132C112.489 216.405 126.268 216.542 139.595 216.676C142.066 216.701 144.541 216.727 147.007 216.762C148.962 216.792 150.685 216.83 152.279 216.878C163.2 217.217 174.131 217.44 184.769 217.544C189.336 217.587 193.894 217.608 198.44 217.608C214.969 217.608 231.343 217.32 247.27 216.744C251.21 216.603 255.214 216.396 259.089 216.194C264.804 215.898 270.711 215.593 276.516 215.49C286.29 215.322 295.034 214.888 302.982 211.322C309.852 208.237 319.06 202.948 319.674 192.667C320.069 186.162 317.105 179.223 311.541 173.638Z" fill="#74C7E5"/>
<path d="M168.442 157.608C167.613 157.702 167.02 158.454 167.115 159.279C167.411 161.861 166.096 164.65 163.909 166.059C161.727 167.468 158.642 167.52 156.412 166.184C154.182 164.847 152.773 162.106 152.988 159.515C153.056 158.686 152.438 157.956 151.609 157.887C150.771 157.814 150.049 158.437 149.98 159.266C149.946 159.679 149.939 160.092 149.959 160.504C150.076 162.906 150.157 165.644 148.115 166.914C147.879 167.06 147.806 167.369 147.952 167.606C148.047 167.76 148.21 167.842 148.382 167.842C148.472 167.842 148.567 167.816 148.648 167.765C148.91 167.602 149.163 167.427 149.409 167.24C150.482 166.423 152.172 166.519 153.146 167.451C153.811 168.087 154.127 169.098 153.51 169.782C153.165 170.164 152.764 170.493 152.317 170.746C152.077 170.884 151.991 171.189 152.128 171.434C152.219 171.597 152.39 171.687 152.567 171.687C152.653 171.687 152.734 171.666 152.816 171.623C154.544 170.647 156.73 169.832 158.698 170.09C159.149 170.15 159.604 170.179 160.06 170.179C161.989 170.179 163.922 169.651 165.551 168.598C168.713 166.557 170.547 162.678 170.118 158.935C170.023 158.106 169.271 157.513 168.442 157.608Z" fill="#231F20"/>
<path d="M232.335 166.914C230.293 165.644 230.374 162.906 230.491 160.504C230.511 160.094 230.504 159.682 230.47 159.271C230.401 158.441 229.684 157.827 228.842 157.887C228.012 157.956 227.394 158.682 227.462 159.515C227.673 162.106 226.264 164.847 224.038 166.184C221.808 167.52 218.728 167.468 216.541 166.059C214.358 164.65 213.039 161.861 213.336 159.279C213.43 158.45 212.837 157.702 212.008 157.608C211.183 157.513 210.431 158.106 210.337 158.935C209.907 162.673 211.742 166.557 214.904 168.598C216.536 169.651 218.466 170.179 220.395 170.179C220.85 170.179 221.306 170.15 221.756 170.09C223.725 169.831 225.91 170.646 227.639 171.623C227.716 171.666 227.802 171.687 227.888 171.687C228.064 171.687 228.236 171.597 228.326 171.434C228.464 171.193 228.378 170.884 228.137 170.746C227.689 170.494 227.286 170.164 226.941 169.781C226.326 169.098 226.642 168.091 227.306 167.456C228.281 166.525 229.974 166.427 231.048 167.241C231.294 167.428 231.549 167.602 231.811 167.765C231.892 167.816 231.987 167.842 232.077 167.842C232.244 167.842 232.408 167.756 232.507 167.606C232.64 167.374 232.571 167.064 232.335 166.914Z" fill="#231F20"/>
<path d="M178.178 193.345C176.588 191.562 173.787 190.961 171.523 191.923C169.186 192.911 167.72 195.429 168.116 197.779C168.55 200.362 171.063 201.762 173.366 202.003C173.632 202.029 173.89 202.046 174.148 202.046C175.978 202.046 177.572 201.35 178.513 200.108C179.978 198.175 179.832 195.206 178.178 193.345Z" fill="#91D9F2"/>
<path d="M157.701 177.036C155.183 175.537 151.604 175.425 148.768 175.464C145.58 175.507 142.01 175.941 139.08 177.264C136.871 178.261 135.612 180.443 136.699 182.798C137.915 185.436 141.297 186.252 143.909 186.574C148.171 187.099 157.275 187.382 159.548 182.738C160.597 180.585 159.72 178.239 157.701 177.036Z" fill="#57B6DC"/>
<path d="M246.57 177.036C244.052 175.537 240.473 175.425 237.637 175.464C234.449 175.507 230.879 175.941 227.949 177.264C225.74 178.261 224.481 180.443 225.568 182.798C226.784 185.436 230.166 186.252 232.778 186.574C237.04 187.099 246.144 187.382 248.417 182.738C249.461 180.585 248.589 178.239 246.57 177.036Z" fill="#57B6DC"/>
<path d="M70.92 163.924C65.3818 166.239 61.7642 172.474 62.5031 178.429C63.2421 184.383 68.2733 189.548 74.2068 190.437C74.3443 190.459 74.4818 190.467 74.6236 190.467C75.9812 190.467 77.1542 189.453 77.3561 188.113C77.4678 187.382 77.2831 186.652 76.8448 186.055C76.4066 185.462 75.7621 185.071 75.0317 184.964C71.4656 184.426 68.4409 181.324 67.9941 177.745C67.5515 174.166 69.7256 170.416 73.051 169.028C76.3808 167.636 80.5742 168.723 82.8084 171.554C83.2681 172.134 83.9255 172.499 84.6559 172.585C85.3906 172.671 86.1124 172.465 86.6924 172.01C87.2724 171.55 87.6376 170.893 87.7279 170.162C87.8181 169.432 87.6076 168.706 87.1521 168.126C83.4357 163.412 76.4539 161.608 70.92 163.924Z" fill="#57B6DC"/>
<path d="M128.82 118.755C121.391 120.039 114.594 125.457 111.075 132.894C108.05 139.292 107.329 147.193 109.043 155.137C109.318 156.401 110.452 157.32 111.745 157.32C111.943 157.32 112.141 157.298 112.33 157.256C113.051 157.101 113.67 156.671 114.07 156.048C114.469 155.425 114.607 154.686 114.448 153.964C112.987 147.202 113.563 140.559 116.072 135.253C118.83 129.419 124.076 125.182 129.752 124.198C135.664 123.18 142.04 126.089 144.588 130.97C144.931 131.627 145.507 132.108 146.212 132.332C146.916 132.555 147.668 132.486 148.321 132.147C149.675 131.442 150.203 129.767 149.494 128.413C145.834 121.384 137.133 117.32 128.82 118.755Z" fill="#57B6DC"/>
<path d="M214.032 108.92C211.793 101.856 204.09 96.7393 196.116 97.0315C189.164 97.2807 182.264 101.221 177.649 107.571C173.967 112.641 171.643 119.201 170.745 127.073C170.573 128.589 171.664 129.964 173.185 130.136C173.293 130.149 173.396 130.153 173.499 130.153C174.904 130.153 176.085 129.101 176.244 127.7C177.035 120.791 179.015 115.111 182.13 110.819C185.748 105.835 191.05 102.746 196.313 102.561C201.894 102.359 207.243 105.814 208.756 110.587C208.979 111.292 209.465 111.872 210.122 112.211C210.779 112.55 211.527 112.615 212.227 112.391C213.684 111.932 214.492 110.376 214.032 108.92Z" fill="#57B6DC"/>
<path d="M281.143 132.211C285.432 138.993 286.095 147.689 283.478 155.065C282.507 157.803 285.088 162.081 287.984 162.31C288.78 162.373 289.587 162.158 290.206 161.653C305.109 149.484 314.979 131.007 316.834 111.485C318.93 89.4395 312.443 66.4661 299.897 51.5315C287.11 36.309 269.65 27.1403 248 24.2788C235.394 22.6118 220.446 24.6011 209.915 29.3358C199.359 34.0834 189.851 42.7752 183.148 53.8086C177.275 63.4757 173.301 75.0892 171.341 88.3181C171.307 88.5458 171.432 88.7649 171.642 88.8551C171.853 88.9454 172.098 88.8766 172.239 88.6962C176.794 82.7069 184.708 78.2729 194.53 76.202C204.124 74.1826 213.838 74.9259 221.89 78.2986C230.741 82.0022 237.864 89.1473 240.953 97.4095C244.287 106.333 242.857 116.615 237.306 123.601C237.202 123.734 237.168 123.91 237.22 124.069C237.271 124.228 237.4 124.353 237.563 124.4C239.051 124.819 240.628 124.455 241.963 123.675C244.724 122.06 247.749 120.843 250.951 120.116C262.371 117.534 275.072 122.617 281.143 132.211Z" fill="#F5C371"/>
<path d="M251.562 69.9719C251.209 68.2232 250.479 66.6077 249.826 65.2329C249.465 64.481 248.567 64.1587 247.815 64.5196C247.063 64.8805 246.745 65.7785 247.102 66.5304C247.682 67.742 248.322 69.1556 248.606 70.5648C248.799 71.5358 248.911 72.958 248.322 74.2254C247.583 75.8194 245.753 76.9279 243.768 76.9838C241.908 77.0396 239.884 76.2104 238.238 74.7152C237.62 74.1524 236.666 74.1996 236.107 74.814C235.544 75.4327 235.592 76.3866 236.206 76.9451C238.35 78.8957 241.031 79.9999 243.6 79.9999C243.682 79.9999 243.768 79.9999 243.85 79.9956C246.952 79.9097 249.847 78.0966 251.059 75.4886C251.794 73.9075 251.966 71.9998 251.562 69.9719Z" fill="#231F20"/>
<path d="M201.546 52.9577C197.077 51.4367 191.883 56.0899 192.575 60.6914C192.85 62.5045 193.859 64.3434 195.243 65.5464C197.846 67.8064 202.143 66.4272 204.287 64.193C207.488 60.8547 205.907 54.4443 201.546 52.9577Z" fill="#FFEAA3"/>
<path d="M231.862 62.4448C230.259 58.6982 226.384 57.4093 222.856 59.1279C220.858 60.1032 218.951 61.9034 218.719 64.2192C218.319 68.2236 221.468 72.9927 225.932 71.5534C229.46 70.4105 233.559 66.4062 231.862 62.4448Z" fill="#FFEAA3"/>
<path d="M248.7 33.1469C248.038 32.6915 247.316 32.322 246.569 32.0599C243.385 30.9428 239.913 31.583 237.722 34.2168C233.421 39.3897 237.022 48.1202 244.257 46.5219C247.247 45.8603 250.831 44.03 251.819 40.8935C252.794 37.8043 251.179 34.8612 248.7 33.1469Z" fill="#FFEAA3"/>
<path d="M298.11 57.3103C297.521 55.6089 296.06 54.3114 294.393 53.7099C290.449 52.2834 286.449 54.8828 285.396 58.7969C284.739 61.2416 285.495 64.1804 287.914 65.4006C290.801 66.8571 294.217 65.2674 296.301 63.1278C297.86 61.5338 298.887 59.5617 298.11 57.3103Z" fill="#FFEAA3"/>
<path d="M302.023 81.2119C296.459 81.0186 291.291 85.1819 291.737 91.0036C291.746 91.1137 291.767 91.2227 291.77 91.333C291.792 91.9848 291.941 92.6506 292.266 93.3237C293.349 95.5751 295.553 97.3324 297.843 98.2303C302.943 100.241 308.648 98.3378 309.503 92.5547C310.298 87.1797 308.172 81.4224 302.023 81.2119Z" fill="#FFEAA3"/>
<path d="M269.34 102.264C266.319 101.882 263.389 104.567 262.096 107.08C260.824 109.551 261.597 112.576 263.711 114.32C267.002 117.04 272.042 115.467 273.959 112.202C276.468 108.941 274.126 102.865 269.34 102.264Z" fill="#FFEAA3"/>
<path d="M301.998 123.481C299.695 119.82 295.446 119.837 292.198 122.368C289.745 124.28 288.151 127.64 289.336 130.686C290.449 133.552 293.504 135.103 296.46 135.172C302.952 135.322 305.014 128.276 301.998 123.481Z" fill="#FFEAA3"/>
<path d="M270.715 66.7965C265.349 67.0113 261.714 71.8105 258.994 75.9867C258.294 76.8846 257.783 77.9072 257.675 79.0973C257.491 81.1253 258.573 83.0114 260.472 83.7762C264.734 85.4948 270.002 80.5023 272.193 77.3658C274.079 74.6633 276.425 66.5687 270.715 66.7965Z" fill="#FFEAA3"/>
<path d="M228.296 31.4195C227.832 29.7224 225.692 29.3271 224.459 29.2455C205.752 27.9952 188.824 45.7354 181.018 62.7496C179.741 65.5337 178.831 68.3307 178.319 71.0719L178.289 71.2265C177.976 72.885 177.623 74.7669 177.494 76.4382C177.443 77.0999 177.58 77.7357 177.881 78.2298C178.001 78.4275 178.147 78.6036 178.315 78.7454C178.654 79.0376 179.028 79.1837 179.436 79.1837C179.548 79.1837 179.66 79.1708 179.776 79.1493C181.232 78.87 182.633 76.8593 183.17 75.8367C184.236 73.8044 184.992 71.6003 185.722 69.4736C186.006 68.6487 186.289 67.8237 186.59 67.0074C189.838 58.191 194.801 51.0029 201.34 45.6452C207.261 40.7945 214.582 38.0146 221.611 35.7332C221.843 35.6559 222.178 35.5699 222.573 35.4668C224.335 35.0028 227.282 34.2208 228.129 32.76C228.365 32.339 228.425 31.8878 228.296 31.4195Z" fill="#FFF4D1"/>
<path d="M233.692 27.3249C232.941 26.8866 232.051 26.9167 231.256 27.2175C230.818 27.385 230.449 27.6084 230.204 28.0295C229.246 29.6708 231.604 31.9049 233.233 31.5054C234.028 31.312 234.676 30.6933 234.87 29.8942C235.123 28.863 234.578 27.8405 233.692 27.3249Z" fill="#FFF4D1"/>
<path d="M317.014 109.285C317.022 109.159 317.031 109.033 317.039 108.907C317.078 108.297 316.427 108.065 316.219 108.64C312.666 118.282 307.201 127.24 300.198 134.763C297.182 138.003 293.916 140.959 290.505 143.747C291.05 143.3 288.881 138.106 288.576 137.367C287.669 135.171 286.531 133.07 285.19 131.102C282.556 127.24 279.145 123.902 275.205 121.384C266.96 116.112 257.413 115.175 248.206 118.243C246.174 118.92 244.295 119.79 242.556 121.009C241.851 121.504 241.047 121.851 240.193 121.966C240.115 121.977 240.037 121.988 239.959 121.998C238.896 122.147 237.969 122.768 237.301 123.609C237.198 123.743 237.164 123.919 237.215 124.078C237.267 124.237 237.396 124.361 237.559 124.408C239.047 124.827 240.624 124.464 241.958 123.683C244.72 122.068 247.745 120.852 250.947 120.125C262.371 117.534 275.068 122.617 281.138 132.211C286.131 140.103 286.208 150.59 281.921 158.572C281.921 158.574 281.921 158.574 281.92 158.575C281.92 158.578 281.915 158.58 281.914 158.583C281.756 158.873 281.593 159.16 281.426 159.446C281.413 159.464 281.405 159.485 281.392 159.502C281.233 159.769 281.07 160.026 280.902 160.284C280.876 160.323 280.855 160.362 280.829 160.396C280.674 160.632 280.511 160.869 280.344 161.101C280.305 161.152 280.271 161.208 280.232 161.26C280.073 161.483 279.905 161.698 279.738 161.913C279.691 161.973 279.648 162.033 279.605 162.089C279.4 162.346 279.634 162.742 279.958 162.684C282.6 162.212 285.298 162.093 287.994 162.307C288.783 162.37 289.576 162.156 290.189 161.655C305.097 149.486 314.97 131.006 316.825 111.48C316.893 110.77 316.952 110.06 316.999 109.349C317 109.328 317.014 109.306 317.014 109.285Z" fill="#EBCE72"/>
<path d="M89.2525 96.0301C88.9604 95.5145 88.303 95.3341 87.7874 95.6262C83.9441 97.8078 79.642 93.5999 81.738 89.7093L83.594 86.2642C83.8046 85.8689 83.753 85.3877 83.4565 85.0483C83.1644 84.7131 82.6918 84.5928 82.2707 84.7475C76.2298 87.0075 70.421 89.9291 65.0117 93.435C64.5133 93.7573 64.3715 94.4232 64.6937 94.9216C65.016 95.42 65.6819 95.5618 66.1803 95.2396C70.6762 92.3302 75.2716 97.1804 72.7312 101.895L70.8162 105.448C70.5885 105.869 70.6702 106.389 71.0096 106.724C71.2158 106.926 71.4865 107.029 71.7615 107.029C71.9419 107.029 72.1267 106.982 72.2899 106.887L88.8443 97.4866C89.3642 97.1988 89.5447 96.5457 89.2525 96.0301Z" fill="#F7E9BC"/>
<path d="M101.399 125.083C101.167 124.537 100.535 124.284 99.9897 124.516C97.0216 125.779 94.4056 122.408 95.7545 119.478C96.4769 117.909 97.1359 116.31 97.7297 114.685C97.8672 114.307 97.7813 113.882 97.5106 113.585C97.2356 113.289 96.8189 113.173 96.4322 113.28C91.444 114.681 86.6749 116.76 82.2538 119.463C81.7468 119.772 81.5878 120.434 81.8971 120.941C82.2065 121.448 82.8682 121.607 83.3751 121.298C87.6779 118.665 91.7689 123.031 88.9522 127.216C88.6502 127.664 88.3422 128.109 88.0283 128.55C87.7705 128.911 87.7619 129.396 88.0068 129.766C88.2087 130.071 88.5481 130.247 88.9047 130.247C88.9821 130.247 89.0594 130.239 89.1324 130.221C93.1325 129.349 97.0681 128.09 100.836 126.488C101.377 126.26 101.631 125.628 101.399 125.083Z" fill="#F7E9BC"/>
<path d="M77.7553 70.9166C77.489 70.3881 76.8402 70.1733 76.3117 70.4397C69.1803 74.0389 62.1856 66.8687 66.7858 60.338C67.556 59.2445 68.3412 58.1618 69.1409 57.0905C69.4158 56.721 69.4244 56.214 69.1624 55.8359C68.9003 55.4578 68.4234 55.286 67.9808 55.4148C60.5908 57.5588 53.6649 60.9058 47.3963 65.3698C46.9151 65.7135 46.7991 66.3838 47.1428 66.8693C47.4865 67.3505 48.1568 67.4665 48.6423 67.1228C53.4716 63.6819 58.271 69.3699 55.4725 74.5977C53.9246 77.4893 52.4727 80.431 51.1214 83.4151C50.9323 83.8319 51.0268 84.3174 51.3577 84.6353C51.5639 84.833 51.8303 84.9361 52.101 84.9361C52.2642 84.9361 52.4318 84.8974 52.5865 84.8201L77.2827 72.3559C77.8069 72.0938 78.0217 71.4451 77.7553 70.9166Z" fill="#F7E9BC"/>
<path d="M113.498 94.445C111.629 94.445 111.625 97.3494 113.498 97.3494C115.367 97.3494 115.372 94.445 113.498 94.445Z" fill="#ADB9D1"/>
<path d="M119.944 58.204C118.706 58.204 118.706 60.1245 119.944 60.1245C121.181 60.1245 121.181 58.204 119.944 58.204Z" fill="#ADB9D1"/>
<path d="M163.763 27.8108C160.734 27.8108 160.73 32.5198 163.763 32.5198C166.792 32.5198 166.801 27.8108 163.763 27.8108Z" fill="#ADB9D1"/>
<path d="M119.299 31.1146C118.861 31.1146 118.861 31.7935 119.299 31.7935C119.738 31.7935 119.738 31.1146 119.299 31.1146Z" fill="#ADB9D1"/>
<path d="M16.1872 72.9189C15.6415 72.9189 15.6415 73.7654 16.1872 73.7654C16.7329 73.7654 16.7329 72.9189 16.1872 72.9189Z" fill="#ADB9D1"/>
<path d="M45.1888 88.7648H44.5443C43.844 88.7648 43.1781 89.3792 43.2081 90.101C43.2425 90.8228 43.7968 91.4372 44.5443 91.4372H45.1888C45.8891 91.4372 46.5551 90.8228 46.525 90.101C46.4907 89.3749 45.9364 88.7648 45.1888 88.7648Z" fill="#ADB9D1"/>
<path d="M14.8983 147.936C12.2044 147.936 12.2001 152.125 14.8983 152.125C17.5922 152.125 17.5965 147.936 14.8983 147.936Z" fill="#ADB9D1"/>
<path d="M45.8329 166.205C43.4226 166.205 43.4183 169.951 45.8329 169.951C48.2432 169.947 48.2475 166.205 45.8329 166.205Z" fill="#ADB9D1"/>
<path d="M48.4106 183.15C47.9079 183.15 47.9036 183.932 48.4106 183.932C48.9133 183.932 48.9133 183.15 48.4106 183.15Z" fill="#ADB9D1"/>
<path d="M13.5619 234.588C12.6768 234.588 12.6768 235.963 13.5619 235.963C14.447 235.963 14.447 234.588 13.5619 234.588Z" fill="#ADB9D1"/>
<path d="M48.3642 245.2C45.6574 245.2 45.6531 249.406 48.3642 249.406C51.071 249.411 51.0753 245.2 48.3642 245.2Z" fill="#ADB9D1"/>
<path d="M92.6173 249.621C91.1736 249.621 91.1736 251.864 92.6173 251.864C94.0609 251.864 94.0609 249.621 92.6173 249.621Z" fill="#ADB9D1"/>
<path d="M132.545 260.629C132.524 260.191 132.382 259.74 132.051 259.435C131.935 259.349 131.823 259.258 131.707 259.172C131.445 259.018 131.162 258.945 130.857 258.94C130.384 258.88 129.856 259.155 129.533 259.486C129.194 259.834 129.005 260.311 129.005 260.801C129.001 261.78 129.813 262.73 130.844 262.67C131.291 262.644 131.712 262.498 132.038 262.176C132.33 261.884 132.55 261.402 132.532 260.981C132.532 260.951 132.524 260.921 132.524 260.895C132.537 260.801 132.55 260.715 132.545 260.629Z" fill="#ADB9D1"/>
<path d="M17.859 264.53C15.6979 264.53 15.6936 267.89 17.859 267.89C20.0202 267.89 20.0245 264.53 17.859 264.53Z" fill="#ADB9D1"/>
<path d="M266.196 267.963C265.281 268.006 264.511 268.702 264.511 269.647V270.077C264.511 270.957 265.285 271.804 266.196 271.761C267.111 271.718 267.88 271.022 267.88 270.077V269.647C267.88 268.766 267.107 267.92 266.196 267.963Z" fill="#ADB9D1"/>
<path d="M291.975 272.47H291.545C291.309 272.47 291.309 272.84 291.545 272.84H291.975C292.211 272.84 292.211 272.47 291.975 272.47Z" fill="#ADB9D1"/>
<path d="M398.098 285.763C395.061 285.763 395.056 290.481 398.098 290.481C401.136 290.481 401.14 285.763 398.098 285.763Z" fill="#ADB9D1"/>
<path d="M396.81 252.47C394.61 252.47 394.606 255.89 396.81 255.89C399.009 255.89 399.014 252.47 396.81 252.47Z" fill="#ADB9D1"/>
<path d="M310.45 261.329C309.144 261.329 309.14 263.361 310.45 263.361C311.756 263.357 311.76 261.329 310.45 261.329Z" fill="#ADB9D1"/>
<path d="M302.042 242.395C301.9 242.253 301.754 242.107 301.612 241.965C301.234 241.587 300.671 241.355 300.138 241.355C299.627 241.355 299.017 241.583 298.665 241.965C298.3 242.361 298.029 242.885 298.055 243.439C298.08 243.993 298.265 244.513 298.665 244.913L299.094 245.342C299.473 245.72 300.035 245.952 300.568 245.952C301.079 245.952 301.69 245.725 302.042 245.342C302.407 244.947 302.678 244.423 302.652 243.869C302.626 243.314 302.441 242.795 302.042 242.395Z" fill="#ADB9D1"/>
<path d="M377.475 238.21C376.276 238.21 376.276 240.071 377.475 240.071C378.674 240.075 378.674 238.21 377.475 238.21Z" fill="#ADB9D1"/>
<path d="M348.689 210.892C347.722 210.892 347.722 212.396 348.689 212.396C349.656 212.396 349.656 210.892 348.689 210.892Z" fill="#ADB9D1"/>
<path d="M325.917 185.75H325.487C325.341 185.75 325.341 185.977 325.487 185.977H325.917C326.063 185.982 326.063 185.75 325.917 185.75Z" fill="#ADB9D1"/>
<path d="M332.035 158.694C331.649 158.342 331.176 158.119 330.643 158.119H330.214C329.711 158.119 329.178 158.338 328.821 158.694C328.482 159.034 328.224 159.597 328.246 160.087C328.267 160.593 328.435 161.122 328.821 161.479C329.208 161.831 329.681 162.054 330.214 162.054H330.643C331.146 162.054 331.679 161.835 332.035 161.479C332.375 161.139 332.632 160.576 332.611 160.087C332.585 159.58 332.418 159.051 332.035 158.694Z" fill="#ADB9D1"/>
<path d="M337.771 127.003V127.433C337.771 127.661 338.128 127.661 338.128 127.433V127.003C338.124 126.776 337.771 126.776 337.771 127.003Z" fill="#ADB9D1"/>
<path d="M369.742 189.552H369.476C367.585 189.552 367.581 192.491 369.476 192.491H369.742C371.632 192.491 371.637 189.552 369.742 189.552Z" fill="#ADB9D1"/>
<path d="M353.844 148.31C350.854 148.31 350.846 152.959 353.844 152.959C356.835 152.959 356.843 148.31 353.844 148.31Z" fill="#ADB9D1"/>
<path d="M390.794 128.602C389.531 128.602 389.531 130.566 390.794 130.566C392.057 130.561 392.057 128.602 390.794 128.602Z" fill="#ADB9D1"/>
<path d="M328.495 99.5411H328.065C327.524 99.5411 326.956 99.7774 326.57 100.16C326.205 100.525 325.93 101.126 325.951 101.655C326.003 102.798 326.879 103.769 328.065 103.769H328.495C329.036 103.769 329.603 103.532 329.99 103.15C330.355 102.785 330.63 102.183 330.608 101.655C330.557 100.512 329.68 99.5411 328.495 99.5411Z" fill="#ADB9D1"/>
<path d="M375.757 73.3021H374.897C374.004 73.3021 373.144 74.0883 373.183 75.0164C373.226 75.9444 373.935 76.7307 374.897 76.7307H375.757C376.65 76.7307 377.509 75.9444 377.471 75.0164C377.428 74.0883 376.715 73.3021 375.757 73.3021Z" fill="#ADB9D1"/>
<path d="M401.536 81.04C398.786 81.04 398.782 85.315 401.536 85.315C404.286 85.3193 404.29 81.04 401.536 81.04Z" fill="#ADB9D1"/>
<path d="M402.395 60.7048C401.668 60.7048 401.668 61.8304 402.395 61.8304C403.121 61.8304 403.121 60.7048 402.395 60.7048Z" fill="#ADB9D1"/>
<path d="M387.679 6.80917C387.284 6.41389 386.635 6.11743 386.068 6.13891C385.48 6.16469 384.865 6.35804 384.457 6.80917C384.049 7.256 383.787 7.80596 383.787 8.42036V8.85001C383.787 9.43433 384.04 10.0487 384.457 10.4612C384.852 10.8565 385.501 11.1529 386.068 11.1314C386.657 11.1057 387.271 10.9123 387.679 10.4612C388.088 10.0144 388.35 9.4644 388.35 8.85001V8.42036C388.35 7.83603 388.096 7.22163 387.679 6.80917Z" fill="#ADB9D1"/>
<path d="M359.267 0.325684H359C355.774 0.325684 355.765 5.34399 359 5.34399H359.267C362.493 5.34399 362.502 0.325684 359.267 0.325684Z" fill="#ADB9D1"/>
<path d="M297.131 20.1753C294.016 20.1753 294.008 25.0174 297.131 25.0174C300.246 25.0217 300.255 20.1753 297.131 20.1753Z" fill="#ADB9D1"/>
<path d="M246.003 3.63416C244.267 3.63416 244.263 6.33235 246.003 6.33235C247.738 6.33235 247.743 3.63416 246.003 3.63416Z" fill="#ADB9D1"/>
<path d="M175.54 1.28833C172.997 1.28833 172.992 5.24111 175.54 5.24111C178.084 5.24111 178.088 1.28833 175.54 1.28833Z" fill="#ADB9D1"/>
<path d="M150.62 93.1517C149.628 93.1517 149.628 94.6898 150.62 94.6898C151.613 94.6898 151.613 93.1517 150.62 93.1517Z" fill="#ADB9D1"/>
<path d="M85.1413 53.3574C85.1285 53.3574 85.1285 53.3745 85.1413 53.3745C85.1542 53.3745 85.1542 53.3574 85.1413 53.3574Z" fill="#515763"/>
<path d="M134.774 5.02145L134.13 4.37698C133.786 4.03326 133.159 4.00748 132.819 4.37698C132.48 4.74648 132.454 5.32221 132.819 5.68741C133.034 5.90223 133.249 6.11706 133.464 6.33188C133.808 6.6756 134.435 6.70138 134.774 6.33188C135.114 5.96239 135.144 5.38666 134.774 5.02145Z" fill="#515763"/>
<path d="M4.58649 49.5587H3.94202C3.29754 49.5587 2.68314 50.1258 2.71322 50.7875C2.74329 51.4534 3.25458 52.0163 3.94202 52.0163H4.58649C5.23097 52.0163 5.84536 51.4491 5.81529 50.7875C5.78521 50.1215 5.27823 49.5587 4.58649 49.5587Z" fill="#515763"/>
<path d="M31.6543 123.811C29.4287 123.811 29.4244 127.274 31.6543 127.274C33.8799 127.274 33.8842 123.811 31.6543 123.811Z" fill="#515763"/>
<path d="M-0.440576 210.707H-0.616732C-2.92395 210.707 -2.92824 214.295 -0.616732 214.295H-0.440576C1.87094 214.299 1.87523 210.707 -0.440576 210.707Z" fill="#515763"/>
<path d="M107.225 285.553H106.795C106.349 285.553 105.923 285.944 105.945 286.403C105.966 286.867 106.319 287.254 106.795 287.254H107.225C107.672 287.254 108.097 286.863 108.076 286.403C108.059 285.939 107.702 285.553 107.225 285.553Z" fill="#515763"/>
<path d="M337.946 279.469C337.87 279.469 337.87 279.583 337.946 279.583C338.021 279.587 338.021 279.469 337.946 279.469Z" fill="#515763"/>
<path d="M368.882 259.984C366.953 259.984 366.948 262.979 368.882 262.979C370.811 262.983 370.815 259.984 368.882 259.984Z" fill="#515763"/>
<path d="M404.542 185.315C402.725 185.315 402.725 188.138 404.542 188.138C406.36 188.134 406.36 185.315 404.542 185.315Z" fill="#515763"/>
<path d="M368.452 126.372C367.644 126.406 366.961 127.025 366.961 127.863V128.292C366.961 129.07 367.644 129.818 368.452 129.783C369.259 129.749 369.943 129.13 369.943 128.292V127.863C369.943 127.085 369.255 126.337 368.452 126.372Z" fill="#515763"/>
<path d="M327.205 57.3571C326.6 57.3571 326.6 58.298 327.205 58.298C327.811 58.3023 327.811 57.3571 327.205 57.3571Z" fill="#515763"/>
<path d="M406.261 16.9314C406.158 16.9314 406.158 17.0895 406.261 17.0895C406.363 17.0938 406.363 16.9314 406.261 16.9314Z" fill="#515763"/>
<path d="M260.18 16.5621C260.151 16.5621 260.151 16.6073 260.18 16.6073C260.209 16.6032 260.209 16.5621 260.18 16.5621Z" fill="#515763"/>
<path d="M229.246 13.7733C228.421 13.8119 227.725 14.4392 227.725 15.2942V15.7239C227.725 16.5187 228.426 17.2792 229.246 17.2448C230.071 17.2062 230.767 16.5789 230.767 15.7239V15.2942C230.767 14.4994 230.067 13.7389 229.246 13.7733Z" fill="#515763"/>
<path d="M154.101 58.8439C151.196 58.8439 151.192 63.3552 154.101 63.3552C157.001 63.3552 157.009 58.8439 154.101 58.8439Z" fill="#F2E3B5"/>
<path d="M90.0912 51.6385C89.6658 51.2131 88.9741 50.8952 88.364 50.9252C87.7324 50.9553 87.0793 51.1616 86.6368 51.6385C86.1986 52.1154 85.9236 52.704 85.9236 53.3657V54.0101C85.9236 54.6374 86.1943 55.2948 86.6368 55.7373C87.0622 56.1627 87.7539 56.4806 88.364 56.4505C88.9956 56.4205 89.6486 56.2142 90.0912 55.7373C90.5294 55.2604 90.8044 54.6718 90.8044 54.0101V53.3657C90.8044 52.7384 90.5337 52.081 90.0912 51.6385Z" fill="#F2E3B5"/>
<path d="M89.6529 18.1647C89.1416 18.1647 89.1373 18.9638 89.6529 18.9638C90.1685 18.9638 90.1685 18.1647 89.6529 18.1647Z" fill="#F2E3B5"/>
<path d="M43.2552 45.8768H42.6107C42.0651 45.8768 41.5452 46.358 41.571 46.9165C41.5968 47.4794 42.0307 47.9606 42.6107 47.9606H43.2552C43.8009 47.9606 44.3207 47.4794 44.295 46.9165C44.2692 46.358 43.8395 45.8768 43.2552 45.8768Z" fill="#F2E3B5"/>
<path d="M0.0753199 126.729C-1.71632 126.729 -1.72061 129.513 0.0753199 129.513C1.86696 129.513 1.87125 126.729 0.0753199 126.729Z" fill="#F2E3B5"/>
<path d="M61.3006 129.761H60.6562C60.1664 129.761 59.6937 130.191 59.7195 130.698C59.741 131.205 60.132 131.635 60.6562 131.635H61.3006C61.7904 131.635 62.263 131.205 62.2373 130.698C62.2158 130.191 61.8248 129.761 61.3006 129.761Z" fill="#F2E3B5"/>
<path d="M54.8555 204.722C53.0853 204.722 53.081 207.472 54.8555 207.472C56.6256 207.472 56.6299 204.722 54.8555 204.722Z" fill="#F2E3B5"/>
<path d="M31.0097 216.392C29.3298 216.392 29.3255 219.004 31.0097 219.004C32.6897 219.004 32.694 216.392 31.0097 216.392Z" fill="#F2E3B5"/>
<path d="M2.26261 252.388C2.09505 251.876 1.77711 251.365 1.28301 251.112C0.922105 250.927 0.544016 250.781 0.131553 250.798C-0.431288 250.824 -1.01991 251.021 -1.41518 251.442C-1.85772 251.915 -2.06825 252.474 -2.08973 253.11C-2.11122 253.698 -1.84483 254.377 -1.41089 254.777C-0.646112 255.477 0.376452 255.597 1.28731 255.107C1.75133 254.858 2.12942 254.33 2.26691 253.831C2.38451 253.406 2.39708 252.945 2.29774 252.515C2.28785 252.472 2.27618 252.43 2.26261 252.388Z" fill="#F2E3B5"/>
<path d="M82.3061 220.886C80.9269 220.886 80.9269 223.026 82.3061 223.026C83.6853 223.026 83.6853 220.886 82.3061 220.886Z" fill="#F2E3B5"/>
<path d="M306.153 282.837C303.777 282.837 303.773 286.528 306.153 286.528C308.529 286.532 308.533 282.837 306.153 282.837Z" fill="#F2E3B5"/>
<path d="M338.132 283.211C337.99 283.069 337.844 282.923 337.702 282.781C337.324 282.403 336.766 282.171 336.229 282.171C335.717 282.171 335.107 282.399 334.755 282.781C334.39 283.177 334.119 283.701 334.145 284.255C334.171 284.805 334.355 285.329 334.755 285.729C334.897 285.871 335.043 286.017 335.185 286.159C335.563 286.537 336.121 286.769 336.658 286.769C337.17 286.769 337.78 286.541 338.132 286.159C338.497 285.763 338.768 285.239 338.742 284.685C338.716 284.135 338.527 283.611 338.132 283.211Z" fill="#F2E3B5"/>
<path d="M366.304 280.715C365.062 280.715 365.062 282.644 366.304 282.644C367.546 282.64 367.546 280.715 366.304 280.715Z" fill="#F2E3B5"/>
<path d="M345.251 239.636C344.821 239.653 344.456 239.984 344.456 240.431V240.861C344.456 241.277 344.821 241.673 345.251 241.655C345.681 241.638 346.046 241.307 346.046 240.861V240.431C346.046 240.014 345.681 239.619 345.251 239.636Z" fill="#F2E3B5"/>
<path d="M320.761 220.203C319.06 220.203 319.055 222.845 320.761 222.845C322.463 222.85 322.467 220.203 320.761 220.203Z" fill="#F2E3B5"/>
<path d="M409.698 226.274C408.066 226.274 408.066 228.809 409.698 228.809C411.331 228.809 411.331 226.274 409.698 226.274Z" fill="#F2E3B5"/>
<path d="M345.002 184.396C344.86 184.254 344.714 184.108 344.572 183.966C344.254 183.648 343.67 183.623 343.356 183.966C343.042 184.31 343.017 184.843 343.356 185.182L343.786 185.612C344.104 185.93 344.688 185.956 345.002 185.612C345.315 185.273 345.341 184.74 345.002 184.396Z" fill="#F2E3B5"/>
<path d="M379.193 164.181C378.381 164.181 378.377 165.444 379.193 165.444C380.005 165.444 380.009 164.181 379.193 164.181Z" fill="#F2E3B5"/>
<path d="M396.81 152.812C396.126 152.842 395.551 153.366 395.551 154.071V154.501C395.551 155.158 396.131 155.79 396.81 155.76C397.493 155.729 398.068 155.205 398.068 154.501V154.071C398.068 153.414 397.488 152.782 396.81 152.812Z" fill="#F2E3B5"/>
<path d="M344.821 84.1674C344.37 84.1889 343.983 84.5326 343.983 85.0053V85.2201C343.983 85.6583 344.366 86.0751 344.821 86.0579C345.272 86.0364 345.659 85.6927 345.659 85.2201V85.0053C345.659 84.567 345.272 84.1503 344.821 84.1674Z" fill="#F2E3B5"/>
<path d="M320.332 75.0118C319.769 75.0118 319.769 75.884 320.332 75.884C320.895 75.8797 320.895 75.0118 320.332 75.0118Z" fill="#F2E3B5"/>
<path d="M401.105 36.9958H400.676C400.117 36.9958 399.576 37.4899 399.606 38.0656C399.631 38.6456 400.078 39.1354 400.676 39.1354H401.105C401.664 39.1354 402.205 38.6413 402.175 38.0656C402.149 37.4856 401.707 36.9958 401.105 36.9958Z" fill="#F2E3B5"/>
<path d="M407.98 21.8338C405.338 21.8338 405.333 25.9412 407.98 25.9412C410.622 25.9412 410.627 21.8338 407.98 21.8338Z" fill="#F2E3B5"/>
<path d="M315.421 1.57155C315.309 1.46844 315.172 1.40399 315.017 1.40399H314.909C314.763 1.40399 314.609 1.46844 314.506 1.57155C314.407 1.67037 314.329 1.83364 314.338 1.97543C314.347 2.1258 314.394 2.27618 314.506 2.3793C314.617 2.48241 314.755 2.54686 314.909 2.54686H315.017C315.163 2.54686 315.318 2.48241 315.421 2.3793C315.52 2.28048 315.597 2.11721 315.588 1.97543C315.58 1.82505 315.532 1.67467 315.421 1.57155Z" fill="#F2E3B5"/>
<path d="M281.663 -2.93158C279.222 -2.93158 279.218 0.862225 281.663 0.862225C284.103 0.866521 284.108 -2.93158 281.663 -2.93158Z" fill="#F2E3B5"/>
<path d="M258.032 17.3092C255.648 17.3092 255.644 21.0128 258.032 21.0128C260.417 21.0128 260.421 17.3092 258.032 17.3092Z" fill="#F2E3B5"/>
<path d="M204.326 17.8248C203.712 17.8248 203.707 18.7829 204.326 18.7829C204.94 18.7786 204.945 17.8248 204.326 17.8248Z" fill="#F2E3B5"/>
<path d="M154.486 99.3508C154.289 99.3508 154.289 99.6543 154.486 99.6543C154.683 99.6586 154.683 99.3508 154.486 99.3508Z" fill="#F2E3B5"/>
</g>
</svg>
